<svg width="48" height="48" fill="none" xmlns="http://www.w3.org/2000/svg">
  <path d="M24 5.83333V43.0699c0 .7767-.8468 1.2569-1.5133.8582L9.73871 36.3027c-.25849-.1546-.43352-.4175-.47645-.7157L4.99787 5.97587c-.08681-.60279.38078-1.14254.98979-1.14254H23c.5523 0 1 .44771 1 1z" fill="#C4C4C4"/>
  <path d="M38.9448 35.6704l-14.4679 7.8489c-.2975.1614-.6563.1614-.9538 0L9.05522 35.6704c-.27686-.1502-.46677-.4221-.51253-.7337L4.17512 5.19261c-.09099-.61965.40352-1.16949 1.02932-1.14449L24 4.79911l18.7956-.75099c.6258-.025 1.1203.52484 1.0293 1.14449L39.4573 34.9367c-.0457.3116-.2357.5835-.5125.7337z" stroke="#000" stroke-width="2"/>
  <path d="M35.5385 14.2902c.8284 0 1.5-.6715 1.5-1.5 0-.8284-.6716-1.5-1.5-1.5v3zm-21.577 11.8186c0-.8285-.6715-1.5-1.5-1.5-.8284 0-1.5.6715-1.5 1.5h3zm-.859 4.6861l.5386-1.4-.5386 1.4zm11.2566 4.0547l.5387 1.4-.5387-1.4zm-.7182 0l-.5386 1.4.5386-1.4zm11.2567-4.0547l-.5387-1.4.5387 1.4zM10.9615 13.7902v6.8791h3v-6.8791h-3zm2.5 9.3791h21.077v-3h-21.077v3zm20.577-.5v7.1923h3v-7.1923h-3zm.3204 6.7256l-10.5384 4.0548 1.0773 2.7999 10.5384-4.0548-1.0773-2.7999zm-10.1793 4.0548l-10.5385-4.0548-1.0773 2.7999 10.5385 4.0548 1.0773-2.7999zm-10.2181-3.5881v-3.7528h-3v3.7528h3zm21.577-18.5714H24v3h11.5385v-3zm-11.5385 0H13.4615v3H24v-3zM13.6411 29.3949c.1931.0743.3204.2598.3204.4667h-3c0 1.0343.637 1.9618 1.6023 2.3332l1.0773-2.7999zm10.1794 4.0548c.1155-.0445.2435-.0445.3591 0l-1.0773 2.7999c.5778.2223 1.2176.2223 1.7955 0l-1.0773-2.7999zm10.218-3.5881c0-.2069.1274-.3924.3204-.4667l1.0773 2.7999c.9653-.3714 1.6023-1.2989 1.6023-2.3332h-3zm.5-6.6923c-.2762 0-.5-.2239-.5-.5h3c0-1.3808-1.1193-2.5-2.5-2.5v3zm-23.577-2.5c0 1.3807 1.1193 2.5 2.5 2.5v-3c.2762 0 .5.2238.5.5h-3zm3-6.8791c0 .2762-.2238.5-.5.5v-3c-1.3807 0-2.5 1.1193-2.5 2.5h3z" fill="#fff"/>
</svg>
