<svg width="30" height="30" viewBox="0 0 30 30" fill="none" xmlns="http://www.w3.org/2000/svg">
<g opacity="0.88">
<rect x="0.5" y="0.5" width="29" height="29" fill="white"/>
<rect x="15" y="10" width="3" height="6" fill="#78531C"/>
<circle cx="15.5" cy="20.5" r="6.5" fill="#3F81E4"/>
<circle cx="15" cy="17" r="9.5" stroke="black"/>
<circle cx="15" cy="8" r="5" fill="#A58D37"/>
<circle cx="12.5" cy="7.5" r="0.5" fill="black"/>
<circle cx="12.5" cy="7.5" r="0.5" fill="black"/>
<circle cx="16.5" cy="7.5" r="0.5" fill="black"/>
<circle cx="16.5" cy="7.5" r="0.5" fill="black"/>
<path d="M13 10H16" stroke="black" stroke-width="0.5"/>
<path d="M13 5L9 6L11.5 4.5L12.5 2L16 1L19.5 2L20 4.5L20.5 6H19.5L19 4.5L17 6L13 5Z" fill="#610808"/>
<path d="M11.5 4.5L9 6L13 5L17 6L19 4.5M11.5 4.5H20M11.5 4.5L12.5 2L16 1L19.5 2L20 4.5M20 4.5H19M20 4.5L20.5 6H19.5L19 4.5" stroke="black" stroke-width="0.5"/>
<path d="M14.5 17.5V21V24M15 9H13.5" stroke="black" stroke-width="0.5"/>
<path d="M10 14.5H12.5L10.5 16.5L9 17.5V20L7.5 21V19V17.5L8 15.5L10 14.5Z" fill="#964A4A"/>
<path d="M21 18L18.5 15L18 17.5L19 18.5L20 21L19.5 20.5H16.5L18.5 23.5L21 22.5L21.5 19L21 18Z" fill="#964A4A"/>
<path d="M18.5 9.5L19.5 7L19 6.5L18 8.5L18.5 9.5Z" fill="#964A4A"/>
<path d="M16 6L18 6.5M14 6H11.5M13 11.5H15.5M12.5 14.5H10L8 15.5L7.5 17.5V19V21L9 20V17.5L10.5 16.5L12.5 14.5ZM18.5 15L21 18L21.5 19L21 22.5L18.5 23.5L16.5 20.5H19.5L20 21L19 18.5L18 17.5L18.5 15ZM19.5 7L18.5 9.5L18 8.5L19 6.5L19.5 7Z" stroke="black" stroke-width="0.5"/>
<rect x="0.5" y="0.5" width="29" height="29" stroke="black"/>
</g>
</svg>
