<svg width="400" height="400" viewBox="0 0 400 400" fill="none" xmlns="http://www.w3.org/2000/svg">
<g id="Frame 1">
<path id="FONFO" d="M102.597 302.871L188.05 339.057C191.347 340.453 195 338.033 195 334.453V73C195 70.2386 192.761 68 190 68H73.7306C70.6998 68 68.3659 70.6749 68.7767 73.6777L99.593 298.945C99.832 300.692 100.973 302.184 102.597 302.871Z" fill="#F99D34" stroke="#F99D34" stroke-width="10"/>
<path id="Vector 2" d="M121 133.5H167C171.714 133.5 174.071 133.5 175.536 134.964C177 136.429 177 138.786 177 143.5V252.411C177 259.627 177 263.235 174.639 264.702C172.279 266.169 169.044 264.572 162.573 261.378L137.5 249M222.5 268.5L247.461 256.331C253.871 253.207 257.076 251.644 259.174 249.044C259.93 248.107 260.571 247.082 261.082 245.991C262.5 242.966 262.5 239.4 262.5 232.269V225.5C262.5 220.85 262.5 218.525 261.989 216.618C260.602 211.441 256.559 207.398 251.382 206.011C249.475 205.5 247.15 205.5 242.5 205.5V205.5C237.85 205.5 235.525 205.5 233.618 204.989C228.441 203.602 224.398 199.559 223.011 194.382C222.5 192.475 222.5 190.15 222.5 185.5V163.5C222.5 149.358 222.5 142.287 226.893 137.893C231.287 133.5 238.358 133.5 252.5 133.5H280.5M200.5 68.5H310.118C320.773 68.5 326.1 68.5 329.088 71.919C332.077 75.338 331.364 80.6174 329.938 91.1762L302.619 293.508C301.831 299.349 301.436 302.269 299.686 304.441C297.935 306.613 295.166 307.619 289.626 309.631L207.327 339.52C203.949 340.747 202.26 341.361 200.5 341.361C198.74 341.361 197.051 340.747 193.673 339.52L111.374 309.631C105.834 307.619 103.065 306.613 101.314 304.441C99.5637 302.269 99.1694 299.349 98.3809 293.508L71.0618 91.1761C69.6361 80.6174 68.9233 75.338 71.9117 71.919C74.9 68.5 80.2273 68.5 90.8819 68.5H200.5Z" stroke="black" stroke-width="20"/>
</g>
</svg>
