<svg width="100" height="100" viewBox="0 0 100 100" fill="none" xmlns="http://www.w3.org/2000/svg">
<circle cx="50" cy="50" r="50" fill="white"/>
<path d="M24.5105 27.8881L12.5524 32.9231L5 44.2517L9.40559 53.6923L15.0699 61.8741C20.3147 64.3916 31.0559 69.4266 32.0629 69.4266C32.6923 69.4266 36.4685 70.528 40.2447 71.6294L40.2448 71.6294L40.2448 71.6294C44.021 72.7308 47.7972 73.8322 48.4266 73.8322C48.6942 73.8322 49.4171 73.8606 50.4016 73.8994L50.4026 73.8994C54.0489 74.0429 61.2817 74.3277 62.2727 73.8322C63.2797 73.3287 71.9231 72.3636 76.1189 71.9441C79.0559 70.4755 85.1818 67.2867 86.1888 66.2797C87.1958 65.2727 92.4825 60.8252 95 58.7273V42.3636L91.8531 37.958L84.3007 32.9231L67.3077 29.1469H53.4615L40.2448 26L24.5105 27.8881Z" fill="#442121" stroke="black"/>
<path fill-rule="evenodd" clip-rule="evenodd" d="M30.8042 32.9231H20.7343L9.40559 44.2517C10.2448 45.5105 12.049 48.1538 12.5524 48.6573C13.0559 49.1608 14.4406 50.965 15.0699 51.8042C15.9091 52.4336 17.7133 53.6923 18.2168 53.6923C18.5315 53.6923 19.4755 54.1643 20.4196 54.6364C21.3636 55.1084 22.3077 55.5804 22.6224 55.5804H25.7692C27.028 55.5804 30.8042 57.4685 32.0629 58.0979C33.0699 58.6014 35.8392 58.7273 37.0979 58.7273H41.5035H48.4266C50.1049 59.7762 53.7133 61.8741 54.7203 61.8741H66.049C67.0559 61.8741 71.0839 61.035 72.972 60.6154L77.3776 61.8741L86.1888 58.7273L91.8531 49.9161L90.5944 44.2517L84.9301 41.1049L71.7133 36.6993H50.9441L30.8042 32.9231Z" fill="#B14C4C"/>
<path fill-rule="evenodd" clip-rule="evenodd" d="M30.8042 32.9231H20.7343L9.40559 44.2517C10.2448 45.5105 12.049 48.1538 12.5524 48.6573C13.0559 49.1608 14.4406 50.965 15.0699 51.8042C15.9091 52.4336 17.7133 53.6923 18.2168 53.6923C18.5315 53.6923 19.4755 54.1643 20.4196 54.6364C21.3636 55.1084 22.3077 55.5804 22.6224 55.5804H25.7692C27.028 55.5804 30.8042 57.4685 32.0629 58.0979C33.0699 58.6014 35.8392 58.7273 37.0979 58.7273H41.5035H48.4266C50.1049 59.7762 53.7133 61.8741 54.7203 61.8741H66.049C67.0559 61.8741 71.0839 61.035 72.972 60.6154L77.3776 61.8741L86.1888 58.7273L91.8531 49.9161L90.5944 44.2517L84.9301 41.1049L71.7133 36.6993H50.9441L30.8042 32.9231Z" fill="#816969"/>
<path d="M20.7343 32.9231H30.8042L50.9441 36.6993H71.7133L84.9301 41.1049L90.5944 44.2517L91.8531 49.9161L86.1888 58.7273L77.3776 61.8741L72.972 60.6154C71.0839 61.035 67.0559 61.8741 66.049 61.8741H54.7203C53.7133 61.8741 50.1049 59.7762 48.4266 58.7273H41.5035H37.0979C35.8392 58.7273 33.0699 58.6014 32.0629 58.0979C30.8042 57.4685 27.028 55.5804 25.7692 55.5804H22.6224C22.3077 55.5804 21.3636 55.1084 20.4196 54.6364C19.4755 54.1643 18.5315 53.6923 18.2168 53.6923C17.7133 53.6923 15.9091 52.4336 15.0699 51.8042C14.4406 50.965 13.0559 49.1608 12.5524 48.6573C12.049 48.1538 10.2448 45.5105 9.40559 44.2517L20.7343 32.9231Z" fill="#B14C4C"/>
<path d="M20.7343 32.9231H30.8042L50.9441 36.6993H71.7133L84.9301 41.1049L90.5944 44.2517L91.8531 49.9161L86.1888 58.7273L77.3776 61.8741L72.972 60.6154C71.0839 61.035 67.0559 61.8741 66.049 61.8741H54.7203C53.7133 61.8741 50.1049 59.7762 48.4266 58.7273H41.5035H37.0979C35.8392 58.7273 33.0699 58.6014 32.0629 58.0979C30.8042 57.4685 27.028 55.5804 25.7692 55.5804H22.6224C22.3077 55.5804 21.3636 55.1084 20.4196 54.6364C19.4755 54.1643 18.5315 53.6923 18.2168 53.6923C17.7133 53.6923 15.9091 52.4336 15.0699 51.8042C14.4406 50.965 13.0559 49.1608 12.5524 48.6573C12.049 48.1538 10.2448 45.5105 9.40559 44.2517L20.7343 32.9231Z" fill="#816969"/>
<path d="M66.049 61.8741C67.0559 61.8741 71.0839 61.035 72.972 60.6154L77.3776 61.8741L86.1888 58.7273L91.8531 49.9161L90.5944 44.2517L84.9301 41.1049L71.7133 36.6993H50.9441L30.8042 32.9231H20.7343L9.40559 44.2517C10.2448 45.5105 12.049 48.1538 12.5524 48.6573C13.0559 49.1608 14.4406 50.965 15.0699 51.8042C15.9091 52.4336 17.7133 53.6923 18.2168 53.6923C18.5315 53.6923 19.4755 54.1643 20.4196 54.6364C21.3636 55.1084 22.3077 55.5804 22.6224 55.5804M66.049 61.8741C64.7902 61.8741 55.979 61.8741 54.7203 61.8741M66.049 61.8741H54.7203M54.7203 61.8741C53.7133 61.8741 50.1049 59.7762 48.4266 58.7273M48.4266 58.7273C46.5385 58.7273 42.5105 58.7273 41.5035 58.7273M48.4266 58.7273H41.5035M41.5035 58.7273C40.4965 58.7273 38.1469 58.7273 37.0979 58.7273M41.5035 58.7273H37.0979M37.0979 58.7273C35.8392 58.7273 33.0699 58.6014 32.0629 58.0979C30.8042 57.4685 27.028 55.5804 25.7692 55.5804M25.7692 55.5804C24.5105 55.5804 23.2517 55.5804 22.6224 55.5804M25.7692 55.5804H22.6224" stroke="black"/>
<path d="M16 43.5L18 40.5C20.3333 40 25.8 39 29 39H40H48C51 39 57 40.5 58.5 40.5C59.7 40.5 67 41.1667 70.5 41.5L78 43.5L85 47.5V53C84.5 54.3333 83.3 57.4 82.5 59C81.5 61 78.5 60 76.5 60H69.5C67.5 60 62.5 62 61.5 62C60.7 62 53.8333 60.6667 50.5 60L41.5 59L32 57C29.5 56.3333 23.9 54.6 21.5 53C19.1 51.4 18.1667 50.3333 18 50L16 43.5Z" fill="black" fill-opacity="0.25" stroke="black" stroke-width="0.25"/>
<path d="M64.7902 60.6154L62.2727 58.0979L59.1259 59.986L55.3496 56.8391L52.8321 59.3566L50.3147 58.0979L49.0559 56.8391L45.9091 58.0979L43.3916 57.4685L42.1329 54.3217L38.986 57.4685C37.9371 57.2587 35.8392 56.7133 35.8392 56.2098C35.8392 55.7063 35.4196 53.4825 35.2098 52.4336L31.4336 56.8391L28.9161 55.5804V54.3217H26.3986H23.8811V51.8042L21.993 52.4336L20.7343 49.9161L23.8811 48.028L25.1399 49.2867H28.9161L30.8042 49.9161L35.8392 50.5454L42.1329 51.1748C42.1637 52.1466 42.2069 54.1364 42.1329 54.3217L43.3916 51.1748L49.6853 52.4336H56.6084L62.2727 53.6923H67.937H73.6014H75.4895L78.007 54.951L79.2657 57.4685V59.3566L78.007 58.7273V60.6154L76.7482 59.986L74.2307 57.4685L72.972 59.986H68.5664L67.3077 56.8391L66.6783 59.3566L64.7902 60.6154Z" fill="white"/>
<path d="M62.2727 53.6923V58.0979M62.2727 53.6923H67.937M62.2727 53.6923L56.6084 52.4336M62.2727 58.0979L64.7902 60.6154L66.6783 59.3566L67.3077 56.8391M62.2727 58.0979L59.1259 59.986L55.3496 56.8391M67.3077 56.8391L67.937 53.6923M67.3077 56.8391L68.5664 59.986H72.972L74.2307 57.4685M67.937 53.6923H73.6014M74.2307 57.4685V54.951L73.6014 53.6923M74.2307 57.4685L76.7482 59.986L78.007 60.6154V58.7273M73.6014 53.6923H75.4895L78.007 54.951M78.007 58.7273V54.951M78.007 58.7273L79.2657 59.3566V57.4685L78.007 54.951M55.3496 56.8391L56.6084 52.4336M55.3496 56.8391L52.8321 59.3566L50.3147 58.0979L49.0559 56.8391M56.6084 52.4336H49.6853M49.0559 56.8391L49.6853 52.4336M49.0559 56.8391L45.9091 58.0979L43.3916 57.4685L42.1329 54.3217M49.6853 52.4336L43.3916 51.1748L42.1329 54.3217M42.1329 54.3217C42.2069 54.1364 42.1637 52.1466 42.1329 51.1748L35.8392 50.5454M42.1329 54.3217L38.986 57.4685C37.9371 57.2587 35.8392 56.7133 35.8392 56.2098C35.8392 55.7063 35.4196 53.4825 35.2098 52.4336M35.8392 50.5454L35.2098 52.4336M35.8392 50.5454L30.8042 49.9161L28.9161 49.2867M35.2098 52.4336L31.4336 56.8391L28.9161 55.5804V54.3217H26.3986M26.3986 54.3217L28.9161 49.2867M26.3986 54.3217H23.8811V51.8042M28.9161 49.2867H25.1399M23.8811 51.8042L25.1399 49.2867M23.8811 51.8042L21.993 52.4336L20.7343 49.9161L23.8811 48.028L25.1399 49.2867" stroke="black" stroke-width="0.25"/>
<path d="M53.4166 50.7456C53.0334 51.4401 52.9173 52.282 51.9536 52.3081C51.0366 52.3328 50.1155 52.3081 49.1981 52.3081C48.3887 52.3081 47.5569 52.0987 46.7692 51.8961C46.3798 51.796 46.2025 51.6847 45.775 51.6689C45.5963 51.6623 45.137 51.5835 44.9796 51.5126C44.326 51.2186 43.3354 51.5309 42.8064 51.0297C42.0756 50.3374 42.1672 49.4783 42.1672 48.5441C42.1672 47.4836 42.4853 46.5605 42.6146 45.5258C42.7453 44.4805 42.9527 43.2449 43.3035 42.2802C43.4841 41.7836 43.6411 40.974 44.2268 40.7462C45.1749 40.3775 46.3932 39.8462 47.4084 39.8462H49.2975C50.2508 39.8462 50.8925 40.6416 51.6553 41.1865C52.4395 41.7466 52.7329 42.2119 53.1041 43.0472C53.2262 43.3218 54.0798 45.8385 54.0909 46.1399C54.0909 46.1399 54.8547 44.773 55.2702 44.1267C56.3479 42.4502 58.0139 41.3143 59.993 41.3143C60.4666 41.3143 61.1358 41.186 61.527 41.5061C62.1571 42.0217 62.8603 42.5909 63.4374 43.1679C64.8367 44.5673 64.666 46.7681 64.666 48.6009C64.666 49.8173 64.9371 53.0045 63.1036 53.0751C61.2455 53.1465 59.1411 53.3136 57.3084 53.0609C55.2786 52.7809 53.4166 53.0826 53.4166 50.7456Z" fill="white"/>
<path d="M72.3427 51.8042C71.3629 52.6059 69.6897 53.1045 68.5665 53.0629C68.1587 53.0478 66.4146 52.6367 66.049 52.4336C65.5847 52.1756 65.0495 52.1287 65.0495 51.4311V47.3986C65.0495 47.3986 65.0298 46.3111 65.0495 45.9163C65.0827 45.2526 65.4166 44.495 66.049 44.2517C67.0517 43.8661 67.7579 43.4875 68.9484 43.4875H70.4185C71.0865 43.4875 72.4563 45.8367 72.6163 46.3567C72.8637 46.1093 74.8856 44.9647 74.8856 44.9647C75.3826 44.8727 77.8747 43.7569 78.1596 44.3268C78.4943 44.9963 79.2658 46.0341 79.2658 46.7692C79.2658 47.6927 78.603 48.8103 78.1596 49.6164C77.8244 50.2259 77.3592 51.1199 76.8741 51.605C76.4845 51.9946 76.3034 52.5592 75.887 52.9756C75.4117 53.4509 74.8333 53.7142 74.1541 53.7142C73.6471 53.7142 72.3427 51.8042 72.3427 51.8042Z" fill="white"/>
<path d="M41.6618 50.0013L41.8163 49.4339C41.8163 49.4339 42.0626 48.315 42.0626 48.0065V46.4581C42.0626 45.3737 42.2762 44.0643 41.9587 43.023C41.5632 41.7261 40.2781 39.9025 38.5887 39.8585C37.9638 39.8422 37.2745 39.8141 36.6737 39.987C35.8838 40.2142 35.3909 41.659 35.2782 42.2657C35.0749 43.3597 34.5804 44.4122 34.5804 45.5249V47.7969C34.5804 48.6657 34.6923 49.9487 35.7087 50.3191C36.4282 50.5813 37.4799 50.7183 38.2473 50.7856C39.0574 50.8568 39.7923 51.0808 40.5855 51.1711C41.1683 51.2374 41.499 50.4091 41.6608 50.0037L41.6618 50.0013Z" fill="white"/>
<path d="M34.9099 44.7094C35.1929 43.5774 34.3933 43.3293 34.5974 42.1811C34.5974 41.3725 34.4148 40.9875 33.9014 40.3275C33.4439 39.7393 32.2581 39.7795 31.5578 39.9795C30.9199 40.1618 30.4087 39.8577 30.0664 40.64C29.8321 41.1756 29.6725 41.72 29.619 42.309C29.4863 43.769 29.5429 45.3876 29.7113 46.84C29.8767 48.2664 30.1563 48.8209 31.3945 49.5174C32.4403 50.1056 32.8327 50.721 33.8304 49.7233C34.4894 49.0644 34.5961 47.9908 34.7892 47.1027C34.9595 46.3192 34.7158 45.486 34.9099 44.7094Z" fill="white"/>
<path d="M29.5455 45.5865C29.5455 45.0755 29.5342 45.4014 29.5455 44.8541C29.5455 44.5088 29.2836 44.273 29.2836 43.9105C29.2836 43.6322 29.3559 43.2995 29.1526 43.0795C28.5762 42.4559 28.171 41.5232 27.2904 41.1781C25.3196 40.4059 25.801 45.9765 25.8718 46.8682C25.9449 47.7874 26.0831 49.0539 27.1158 49.4174C27.614 49.5928 28.4249 50.3719 28.6943 49.5371C28.9863 48.6328 29.0303 47.7165 29.3418 46.8118C29.4636 46.4579 29.5455 45.9601 29.5455 45.5865Z" fill="white"/>
<path d="M25.0928 46.0975C25.2255 45.0358 24.7926 44.7077 25.0843 43.6686C25.0843 43.0953 25.233 42.5784 24.9721 42.0566C24.7406 41.5937 24.4561 41.1049 23.8855 41.1049C23.516 41.1049 22.9833 42.3268 22.8273 42.6389C22.5404 43.2127 22.621 44.1834 22.6782 44.8121C22.768 45.8003 22.8352 46.8523 23.4381 47.6812C23.6615 47.9884 24.2866 48.0806 24.4549 47.4449C24.6357 46.762 25.0059 46.793 25.0928 46.0975Z" fill="white"/>
<path d="M22.2654 46.2777C22.2654 45.1865 22.4168 45.016 22.2654 43.6224L22.2654 43.6088C22.2654 43.1369 22.2654 42.2307 22.0571 41.8257C21.8587 41.4399 21.0115 41.2616 20.722 41.6339C20.1449 42.3759 20.2675 43.0638 20.2675 43.9988C20.2675 44.84 20.0559 47.376 21.4464 47.3225C22.0102 47.3008 22.2654 46.7019 22.2654 46.2777Z" fill="white"/>
<path d="M19.1115 46.1377C20.1279 46.0934 19.7672 43.468 19.8915 42.9564C19.8915 42.3239 20.5993 41.1049 19.4368 41.1049C18.013 41.1049 17.5874 43.3787 17.5874 44.1612C17.5874 44.9755 17.715 46.1985 19.1115 46.1377Z" fill="white"/>
<path d="M81.7833 47.3986L81.1539 46.7692H80.5245L79.2658 47.3986L76.1189 53.0629V53.6923L78.0071 54.9511H79.2658L80.5245 53.6923L81.1539 51.8042C81.3637 51.1748 81.7833 49.7902 81.7833 49.2867V47.3986Z" fill="white"/>
<path d="M83.042 48.6573L81.7833 49.9161C81.7833 50.5455 79.8952 53.6923 79.8952 54.3217C79.8952 54.8252 80.105 54.9511 79.8952 54.9511L81.1539 55.5804L81.7833 54.3217C82.2029 53.6923 83.042 52.3077 83.042 51.8042C83.042 51.3007 83.4616 50.7553 83.6714 50.5455V49.2867L83.042 48.6573Z" fill="white"/>
<path d="M54.0909 46.1399C54.0909 46.9167 53.7973 50.0557 53.4166 50.7456M54.0909 46.1399C54.0798 45.8385 53.2262 43.3218 53.1041 43.0472C52.7329 42.2119 52.4395 41.7466 51.6553 41.1865C50.8925 40.6416 50.2508 39.8462 49.2975 39.8462H47.4084C46.3932 39.8462 45.1749 40.3775 44.2268 40.7462C43.6411 40.974 43.4841 41.7836 43.3035 42.2802C42.9527 43.2449 42.7453 44.4805 42.6146 45.5258C42.4853 46.5605 42.1672 47.4836 42.1672 48.5441C42.1672 49.4783 42.0756 50.3374 42.8064 51.0297C43.3354 51.5309 44.326 51.2186 44.9796 51.5126C45.137 51.5835 45.5963 51.6623 45.775 51.6689C46.2025 51.6847 46.3798 51.796 46.7692 51.8961C47.5569 52.0987 48.3887 52.3081 49.1981 52.3081C50.1155 52.3081 51.0366 52.3328 51.9536 52.3081C52.9173 52.282 53.0334 51.4401 53.4166 50.7456M54.0909 46.1399C54.0909 46.1399 54.8547 44.773 55.2702 44.1267C56.3479 42.4502 58.0139 41.3143 59.993 41.3143C60.4666 41.3143 61.1358 41.186 61.527 41.5061C62.1571 42.0217 62.8603 42.5909 63.4374 43.1679C64.8367 44.5673 64.666 46.7681 64.666 48.6009C64.666 49.8173 64.9371 53.0045 63.1036 53.0751C61.2455 53.1465 59.1411 53.3136 57.3084 53.0609C55.2786 52.7809 53.4166 53.0826 53.4166 50.7456M72.3427 51.8042C71.3629 52.6059 69.6897 53.1045 68.5665 53.0629C68.1587 53.0478 66.4146 52.6367 66.049 52.4336C65.5847 52.1756 65.0495 52.1287 65.0495 51.4311V47.3986C65.0495 47.3986 65.0298 46.3111 65.0495 45.9163C65.0827 45.2526 65.4166 44.495 66.049 44.2517C67.0517 43.8661 67.7579 43.4875 68.9484 43.4875H70.4185C71.0865 43.4875 72.4563 45.8367 72.6163 46.3567M72.3427 51.8042C72.5518 51.5486 72.3809 46.5921 72.6163 46.3567M72.3427 51.8042C72.3427 51.8042 73.6471 53.7142 74.1541 53.7142C74.8333 53.7142 75.4117 53.4509 75.887 52.9756C76.3034 52.5592 76.4845 51.9946 76.8741 51.605C77.3592 51.1199 77.8244 50.2259 78.1596 49.6164C78.603 48.8103 79.2658 47.6927 79.2658 46.7692C79.2658 46.0341 78.4943 44.9963 78.1596 44.3268C77.8747 43.7569 75.3826 44.8727 74.8856 44.9647C74.8856 44.9647 72.8637 46.1093 72.6163 46.3567M41.8163 49.4339L41.6618 50.0013L41.6608 50.0037C41.499 50.4091 41.1683 51.2374 40.5855 51.1711C39.7923 51.0808 39.0574 50.8568 38.2473 50.7856C37.4799 50.7183 36.4282 50.5813 35.7087 50.3191C34.6923 49.9487 34.5804 48.6657 34.5804 47.7969V45.5249C34.5804 44.4122 35.0749 43.3597 35.2782 42.2657C35.3909 41.659 35.8838 40.2142 36.6737 39.987C37.2745 39.8141 37.9638 39.8422 38.5887 39.8585C40.2781 39.9025 41.5632 41.7261 41.9587 43.023C42.2762 44.0643 42.0626 45.3737 42.0626 46.4581V48.0065C42.0626 48.315 41.8163 49.4339 41.8163 49.4339ZM34.5974 42.1811C34.3933 43.3293 35.1929 43.5774 34.9099 44.7094C34.7158 45.486 34.9595 46.3192 34.7892 47.1027C34.5961 47.9908 34.4894 49.0644 33.8304 49.7233C32.8327 50.721 32.4403 50.1056 31.3945 49.5174C30.1563 48.8209 29.8767 48.2664 29.7113 46.84C29.5429 45.3876 29.4863 43.769 29.619 42.309C29.6725 41.72 29.8321 41.1756 30.0664 40.64C30.4087 39.8577 30.9199 40.1618 31.5578 39.9795C32.2581 39.7795 33.4439 39.7393 33.9014 40.3275C34.4148 40.9875 34.5974 41.3725 34.5974 42.1811ZM29.5455 44.8541C29.5342 45.4014 29.5455 45.0755 29.5455 45.5865C29.5455 45.9601 29.4636 46.4579 29.3418 46.8118C29.0303 47.7165 28.9863 48.6328 28.6943 49.5371C28.4249 50.3719 27.614 49.5928 27.1158 49.4174C26.0831 49.0539 25.9449 47.7874 25.8718 46.8682C25.801 45.9765 25.3196 40.4059 27.2904 41.1781C28.171 41.5232 28.5762 42.4559 29.1526 43.0795C29.3559 43.2995 29.2836 43.6322 29.2836 43.9105C29.2836 44.273 29.5455 44.5088 29.5455 44.8541ZM25.0843 43.6686C24.7926 44.7077 25.2255 45.0358 25.0928 46.0975C25.0059 46.793 24.6357 46.762 24.4549 47.4449C24.2866 48.0806 23.6615 47.9884 23.4381 47.6812C22.8352 46.8523 22.768 45.8003 22.6782 44.8121C22.621 44.1834 22.5404 43.2127 22.8273 42.6389C22.9833 42.3268 23.516 41.1049 23.8855 41.1049C24.4561 41.1049 24.7406 41.5937 24.9721 42.0566C25.233 42.5784 25.0843 43.0953 25.0843 43.6686ZM22.2654 43.6224C22.4168 45.016 22.2654 45.1865 22.2654 46.2777C22.2654 46.7019 22.0102 47.3008 21.4464 47.3225C20.0559 47.376 20.2675 44.84 20.2675 43.9988C20.2675 43.0638 20.1449 42.3759 20.722 41.6339C21.0115 41.2616 21.8587 41.4399 22.0571 41.8257C22.2654 42.2307 22.2654 43.1369 22.2654 43.6088L22.2654 43.6224ZM19.8915 42.9564C19.7672 43.468 20.1279 46.0934 19.1115 46.1377C17.715 46.1985 17.5874 44.9755 17.5874 44.1612C17.5874 43.3787 18.013 41.1049 19.4368 41.1049C20.5993 41.1049 19.8915 42.3239 19.8915 42.9564ZM81.1539 46.7692L81.7833 47.3986V49.2867C81.7833 49.7902 81.3637 51.1748 81.1539 51.8042L80.5245 53.6923L79.2658 54.9511H78.0071L76.1189 53.6923V53.0629L79.2658 47.3986L80.5245 46.7692H81.1539ZM81.7833 49.9161L83.042 48.6573L83.6714 49.2867V50.5455C83.4616 50.7553 83.042 51.3007 83.042 51.8042C83.042 52.3077 82.2029 53.6923 81.7833 54.3217L81.1539 55.5804L79.8952 54.9511C80.105 54.9511 79.8952 54.8252 79.8952 54.3217C79.8952 53.6923 81.7833 50.5455 81.7833 49.9161Z" stroke="black" stroke-width="0.25"/>
</svg>
