<svg width="400" height="400" viewBox="0 0 400 400" fill="none" xmlns="http://www.w3.org/2000/svg">
<g id="Frame 1">
<path id="FONFO" d="M102.597 302.871L188.05 339.057C191.347 340.453 195 338.033 195 334.453V73C195 70.2386 192.761 68 190 68H73.7306C70.6998 68 68.3659 70.6749 68.7767 73.6777L99.593 298.945C99.832 300.692 100.973 302.184 102.597 302.871Z" fill="#007ACC" stroke="#007ACC" stroke-width="10"/>
<path id="Vector 2" d="M282 135H246C236.572 135 231.858 135 228.929 137.929C226 140.858 226 145.572 226 155V180C226 189.428 226 194.142 228.929 197.071C231.858 200 236.572 200 246 200H248C257.428 200 262.142 200 265.071 202.929C268 205.858 268 210.572 268 220V245.906C268 252.717 268 256.122 266.174 258.713C264.348 261.304 261.141 262.45 254.727 264.74L226 275M105 135H152.5M152.5 135H200M152.5 135V219V275M200.5 68.5H310.118C320.773 68.5 326.1 68.5 329.088 71.919C332.077 75.338 331.364 80.6174 329.938 91.1762L302.619 293.508C301.831 299.349 301.436 302.269 299.686 304.441C297.935 306.613 295.166 307.619 289.626 309.631L207.327 339.52C203.949 340.747 202.26 341.361 200.5 341.361C198.74 341.361 197.051 340.747 193.673 339.52L111.374 309.631C105.834 307.619 103.065 306.613 101.314 304.441C99.5637 302.269 99.1694 299.349 98.3809 293.508L71.0618 91.1761C69.6361 80.6174 68.9233 75.338 71.9117 71.919C74.9 68.5 80.2273 68.5 90.8819 68.5H200.5Z" stroke="black" stroke-width="20"/>
</g>
</svg>
